<?xml version="1.0" encoding="utf-8"?>
<!-- Generator: Adobe Illustrator 16.0.0, SVG Export Plug-In . SVG Version: 6.00 Build 0)  -->
<!DOCTYPE svg PUBLIC "-//W3C//DTD SVG 1.1//EN" "http://www.w3.org/Graphics/SVG/1.1/DTD/svg11.dtd">
<svg version="1.1" id="Capa_1" xmlns="http://www.w3.org/2000/svg" xmlns:xlink="http://www.w3.org/1999/xlink" x="0px" y="0px"
	 width="512px" height="512px" fill="red" viewBox="0 0 512 512" enable-background="new 0 0 512 512" xml:space="preserve">
<g>
	<path d="M256,32c123.5,0,224,100.5,224,224S379.5,480,256,480S32,379.5,32,256S132.5,32,256,32 M256,0C114.625,0,0,114.625,0,256
		s114.625,256,256,256s256-114.625,256-256S397.375,0,256,0L256,0z"/>
</g>
<g>
	<path d="M329.084,110.061L291.203,110c-42.562,0-70.066,28.218-70.066,71.893v33.146H183.05c-3.292,0-5.957,2.668-5.957,5.959
		v48.027c0,3.291,2.668,5.956,5.957,5.956h38.087v121.186c0,3.291,2.665,5.956,5.957,5.956h49.697c3.289,0,5.954-2.668,5.954-5.956
		V274.981h44.535c3.294,0,5.959-2.665,5.959-5.956l0.018-48.027c0-1.58-0.629-3.094-1.745-4.211
		c-1.115-1.119-2.635-1.748-4.214-1.748h-44.553v-28.099c0-13.505,3.217-20.361,20.81-20.361l25.523-0.009
		c3.289,0,5.954-2.669,5.954-5.958v-44.595C335.032,112.732,332.367,110.067,329.084,110.061z"/>
</g>
</svg>
