<?xml version="1.0" encoding="utf-8"?>
<!-- Generator: Adobe Illustrator 16.0.0, SVG Export Plug-In . SVG Version: 6.00 Build 0)  -->
<!DOCTYPE svg PUBLIC "-//W3C//DTD SVG 1.1//EN" "http://www.w3.org/Graphics/SVG/1.1/DTD/svg11.dtd">
<svg version="1.1" id="Capa_1" xmlns="http://www.w3.org/2000/svg" xmlns:xlink="http://www.w3.org/1999/xlink" x="0px" y="0px"
	 width="512px" height="512px" fill="red" viewBox="0 0 512 512" enable-background="new 0 0 512 512" xml:space="preserve">
<g>
	<path d="M256,32c123.5,0,224,100.5,224,224S379.5,480,256,480C132.5,480,32,379.5,32,256S132.5,32,256,32 M256,0
		C114.625,0,0,114.625,0,256s114.625,256,256,256c141.375,0,256-114.625,256-256S397.375,0,256,0L256,0z"/>
</g>
<g>
	<g>
		<path d="M322.684,110.911H189.316c-43.232,0-78.405,35.173-78.405,78.405v133.367c0,43.232,35.173,78.405,78.405,78.405h133.367
			c43.232,0,78.406-35.173,78.406-78.405V189.316C401.09,146.084,365.916,110.911,322.684,110.911z M377.646,322.684
			c0,30.306-24.656,54.962-54.963,54.962H189.316c-30.306,0-54.962-24.655-54.962-54.962V189.316
			c0-30.306,24.655-54.962,54.962-54.962h133.367c30.307,0,54.963,24.655,54.963,54.962V322.684z"/>
	</g>
</g>
<g>
	<g>
		<path d="M320.365,246.449c-2.063-13.912-8.41-26.521-18.355-36.467c-9.943-9.943-22.553-16.291-36.465-18.354
			c-6.334-0.939-12.756-0.939-19.089,0c-17.193,2.55-32.364,11.642-42.718,25.601c-10.354,13.96-14.653,31.117-12.103,48.309
			c2.55,17.192,11.642,32.362,25.602,42.718c11.333,8.405,24.771,12.819,38.626,12.819c3.211,0,6.446-0.237,9.682-0.718
			c17.193-2.55,32.363-11.642,42.717-25.601C318.617,280.797,322.916,263.642,320.365,246.449z M262.105,297.168
			c-10.998,1.634-21.973-1.118-30.903-7.742c-8.93-6.623-14.747-16.328-16.377-27.326c-1.631-10.998,1.118-21.973,7.742-30.903
			c6.625-8.931,16.329-14.746,27.327-16.377c2.026-0.301,4.065-0.451,6.105-0.451c2.04,0,4.081,0.15,6.106,0.451
			c18.268,2.709,32.361,16.802,35.07,35.069C300.541,272.591,284.811,293.802,262.105,297.168z"/>
	</g>
</g>
<g>
	<g>
		<path d="M341.095,170.913c-2.184-2.183-5.205-3.434-8.288-3.434c-3.084,0-6.105,1.25-8.289,3.434s-3.434,5.199-3.434,8.289
			c0,3.09,1.25,6.105,3.434,8.289c2.184,2.182,5.205,3.434,8.289,3.434c3.083,0,6.104-1.25,8.288-3.434s3.434-5.205,3.434-8.289
			C344.528,176.117,343.278,173.096,341.095,170.913z"/>
	</g>
</g>
</svg>
