<?xml version="1.0" encoding="utf-8"?>
<!-- Generator: Adobe Illustrator 16.0.0, SVG Export Plug-In . SVG Version: 6.00 Build 0)  -->
<!DOCTYPE svg PUBLIC "-//W3C//DTD SVG 1.1//EN" "http://www.w3.org/Graphics/SVG/1.1/DTD/svg11.dtd">
<svg version="1.1" id="Capa_1" xmlns="http://www.w3.org/2000/svg" xmlns:xlink="http://www.w3.org/1999/xlink" x="0px" y="0px"
	 width="512px" height="512px" fill="white" viewBox="0 0 512 512" enable-background="new 0 0 512 512" xml:space="preserve">
<g>
	<path d="M256,32c123.5,0,224,100.5,224,224S379.5,480,256,480S32,379.5,32,256S132.5,32,256,32 M256,0C114.625,0,0,114.625,0,256
		s114.625,256,256,256s256-114.625,256-256S397.375,0,256,0L256,0z"/>
</g>
<g>
	<g>
		<path d="M245.706,322.516c-25.233-2.634-47.983-8.845-67.461-24.082c-2.417-1.894-4.913-3.721-7.117-5.839
			c-8.525-8.186-9.384-17.563-2.64-27.227c5.772-8.273,15.46-10.483,25.53-5.735c1.951,0.922,3.808,2.069,5.586,3.302
			c36.302,24.943,86.169,25.633,122.604,1.121c3.612-2.766,7.47-5.023,11.94-6.174c8.699-2.235,16.809,0.961,21.476,8.567
			c5.329,8.688,5.263,17.171-1.308,23.919c-10.077,10.34-22.194,17.823-35.66,23.046c-12.729,4.938-26.674,7.42-40.48,9.071
			c2.084,2.268,3.066,3.379,4.368,4.69c18.742,18.829,37.566,37.581,56.245,56.47c6.365,6.438,7.693,14.416,4.191,21.9
			c-3.832,8.183-12.409,13.565-20.818,12.989c-5.327-0.369-9.484-3.019-13.177-6.741c-14.141-14.231-28.552-28.199-42.406-42.7
			c-4.035-4.218-5.973-3.418-9.532,0.243c-14.23,14.647-28.688,29.068-43.235,43.409c-6.531,6.438-14.304,7.601-21.877,3.921
			c-8.053-3.904-13.176-12.123-12.78-20.382c0.272-5.587,3.02-9.854,6.854-13.683c18.548-18.519,37.044-37.087,55.55-55.64
			C242.78,325.728,243.922,324.42,245.706,322.516z"/>
		<path d="M261.076,258.004c-45.014-0.152-81.925-37.47-81.662-82.557c0.259-45.58,37.194-82.314,82.65-82.188
			c45.55,0.124,82.107,37.384,81.879,83.44C343.713,221.692,306.546,258.161,261.076,258.004z M301.985,175.557
			c-0.08-22.383-17.906-40.207-40.247-40.227c-22.53-0.023-40.52,18.123-40.343,40.713c0.167,22.301,18.146,39.993,40.55,39.914
			C284.278,215.877,302.062,197.94,301.985,175.557z"/>
	</g>
</g>
</svg>
