<?xml version="1.0" encoding="utf-8"?>
<!-- Generator: Adobe Illustrator 16.0.0, SVG Export Plug-In . SVG Version: 6.00 Build 0)  -->
<!DOCTYPE svg PUBLIC "-//W3C//DTD SVG 1.1//EN" "http://www.w3.org/Graphics/SVG/1.1/DTD/svg11.dtd">
<svg version="1.1" id="Capa_1" xmlns="http://www.w3.org/2000/svg" xmlns:xlink="http://www.w3.org/1999/xlink" x="0px" y="0px"
	 width="512px" height="512px" fill="red" viewBox="0 0 512 512" enable-background="new 0 0 512 512" xml:space="preserve">
<g>
	<path d="M256,32c123.5,0,224,100.5,224,224S379.5,480,256,480S32,379.5,32,256S132.5,32,256,32 M256,0C114.625,0,0,114.625,0,256
		s114.625,256,256,256s256-114.625,256-256S397.375,0,256,0L256,0z"/>
</g>
<g id="XMLID_496_">
	<path id="XMLID_497_" d="M92.897,258.631l69.318,25.871l26.83,86.285c1.717,5.527,8.475,7.569,12.96,3.902l38.639-31.499
		c4.05-3.3,9.819-3.464,14.052-0.392l69.69,50.597c4.799,3.487,11.597,0.858,12.801-4.939l51.052-245.571
		c1.313-6.333-4.911-11.617-10.94-9.285L92.816,243.345C85.796,246.052,85.856,255.992,92.897,258.631z M184.722,270.73
		l135.473-83.438c2.436-1.496,4.939,1.796,2.849,3.736L211.238,294.956c-3.929,3.657-6.464,8.554-7.182,13.866l-3.809,28.225
		c-0.504,3.769-5.798,4.144-6.838,0.495l-14.648-51.467C177.084,280.205,179.529,273.936,184.722,270.73z"/>
</g>
</svg>
